<svg width="30" height="30" viewBox="0 0 30 30" fill="none" xmlns="http://www.w3.org/2000/svg">

  <g clip-path="url(#clip0_2_5840)" id="logo">
    <path d="M12.5581 0V3.83066C11.5028 3.83066 10.6796 3.98157 10.0882 4.28338C9.49679 4.57357 9.24169 5.15977 9.32287 6.04199L9.86206 11.1785C10.0012 12.4786 9.85626 13.5292 9.42722 14.3301C9.00978 15.131 8.36623 15.7464 7.49655 16.1758C6.63848 16.5938 5.62386 16.8897 4.45271 17.0638C5.69343 17.2495 6.74284 17.5514 7.60092 17.9693C8.45899 18.3871 9.08516 18.9907 9.47941 19.7801C9.87366 20.5695 10.0012 21.6258 9.86206 22.9492L9.32287 28.0857C9.24169 28.9679 9.49679 29.5541 10.0882 29.8443C10.6796 30.146 11.5028 30.297 12.5581 30.297V34.1277C9.35765 34.1277 7.1081 33.6401 5.80939 32.6651C4.52229 31.7016 4.00048 30.0475 4.24398 27.7026L4.76579 22.7227C4.85856 21.8406 4.70782 21.1499 4.31357 20.6507C3.93091 20.1516 3.36272 19.8033 2.60901 19.6059C1.85529 19.3971 0.985626 19.2926 0 19.2926V14.8351C0.97403 14.8351 1.8379 14.7364 2.59162 14.5391C3.34533 14.3301 3.91932 13.9761 4.31357 13.477C4.70782 12.9778 4.85856 12.2871 4.76579 11.4049L4.24398 6.45987C3.98889 4.06861 4.51068 2.39706 5.80939 1.4452C7.1081 0.481734 9.35765 0 12.5581 0Z" fill="url(#paint0_linear_2_5840)" />
    <path d="M27.633 4.50977C30.5087 4.50977 32.6771 5.62414 34.1381 7.85288C35.6108 10.07 36.3471 13.1636 36.3471 17.1335C36.3471 21.115 35.6108 24.2318 34.1381 26.4838C32.6771 28.7242 30.5087 29.8443 27.633 29.8443C24.7342 29.8443 22.5541 28.7242 21.0931 26.4838C19.6436 24.2318 18.9189 21.115 18.9189 17.1335C18.9189 13.1636 19.6436 10.07 21.0931 7.85288C22.5541 5.62414 24.7342 4.50977 27.633 4.50977ZM27.633 8.49713C26.4039 8.49713 25.5052 9.15879 24.937 10.4821C24.3689 11.7938 24.0847 14.0109 24.0847 17.1335C24.0847 18.1551 24.1022 19.0663 24.1369 19.8672C24.1718 20.6566 24.224 21.3589 24.2935 21.9741L30.1724 9.66374C29.8942 9.22264 29.5463 8.92083 29.1289 8.75831C28.7231 8.5842 28.2244 8.49713 27.633 8.49713ZM31.1465 17.1335C31.1465 15.7986 31.1175 14.6726 31.0595 13.7555L25.511 25.2302C25.7662 25.4739 26.0676 25.6422 26.4154 25.7351C26.775 25.8279 27.1808 25.8744 27.633 25.8744C28.4564 25.8744 29.1231 25.5958 29.6333 25.0387C30.1551 24.4815 30.5377 23.5644 30.7812 22.2875C31.0248 20.999 31.1465 19.281 31.1465 17.1335Z" fill="url(#paint1_linear_2_5840)" />
    <path d="M48.5 4.50977C51.3758 4.50977 53.5442 5.62414 55.0052 7.85288C56.4779 10.07 57.2141 13.1636 57.2141 17.1335C57.2141 21.115 56.4779 24.2318 55.0052 26.4838C53.5442 28.7242 51.3758 29.8443 48.5 29.8443C45.6011 29.8443 43.4212 28.7242 41.9602 26.4838C40.5107 24.2318 39.786 21.115 39.786 17.1335C39.786 13.1636 40.5107 10.07 41.9602 7.85288C43.4212 5.62414 45.6011 4.50977 48.5 4.50977ZM48.5 8.49713C47.271 8.49713 46.3723 9.15879 45.8041 10.4821C45.2359 11.7938 44.9518 14.0109 44.9518 17.1335C44.9518 18.1551 44.9692 19.0663 45.004 19.8672C45.0387 20.6566 45.0909 21.3589 45.1605 21.9741L51.0395 9.66374C50.7611 9.22264 50.4133 8.92083 49.9959 8.75831C49.59 8.5842 49.0914 8.49713 48.5 8.49713ZM52.0135 17.1335C52.0135 15.7986 51.9846 14.6726 51.9266 13.7555L46.3781 25.2302C46.6331 25.4739 46.9347 25.6422 47.2825 25.7351C47.642 25.8279 48.0478 25.8744 48.5 25.8744C49.3233 25.8744 49.99 25.5958 50.5003 25.0387C51.022 24.4815 51.4048 23.5644 51.6482 22.2875C51.8917 20.999 52.0135 19.281 52.0135 17.1335Z" fill="url(#paint2_linear_2_5840)" />
    <path d="M68.1146 29.8095L62.8966 28.1902L71.889 9.26321H61.2964V5.11914H77.4549V8.84532L68.1146 29.8095Z" fill="url(#paint3_linear_2_5840)" />
    <path d="M84.4419 0C87.6423 0 89.8861 0.481734 91.1732 1.4452C92.4719 2.40867 92.9995 4.06862 92.756 6.42505L92.2342 11.4049C92.1414 12.2871 92.2921 12.9778 92.6864 13.477C93.0807 13.9761 93.6488 14.3301 94.3909 14.5391C95.1447 14.7364 96.0144 14.8351 97 14.8351V19.2926C96.0259 19.2926 95.1621 19.3971 94.4083 19.6059C93.6547 19.8033 93.0807 20.1516 92.6864 20.6507C92.2921 21.1499 92.1414 21.8406 92.2342 22.7227L92.756 27.6678C93.0227 30.0475 92.5009 31.719 91.1905 32.6824C89.8918 33.646 87.6423 34.1277 84.4419 34.1277V30.297C85.5088 30.297 86.3378 30.146 86.9291 29.8443C87.5206 29.5541 87.7699 28.9679 87.6772 28.0857L87.1379 22.9492C86.9988 21.6374 87.1379 20.5868 87.5553 19.7976C87.9844 18.9965 88.6338 18.3871 89.5035 17.9693C90.373 17.5397 91.3935 17.238 92.5646 17.0638C91.3239 16.8781 90.2688 16.5763 89.3991 16.1584C88.5409 15.7405 87.9149 15.1369 87.5206 14.3476C87.1263 13.5466 86.9988 12.4903 87.1379 11.1785L87.6772 6.04199C87.7699 5.15977 87.5147 4.57357 86.9118 4.28338C86.3204 3.98157 85.4971 3.83066 84.4419 3.83066V0Z" fill="url(#paint4_linear_2_5840)" />
    <path d="M8 49.48C8 47.9307 8.31733 46.5587 8.952 45.364C9.60533 44.1693 10.4827 43.2453 11.584 42.592C12.704 41.92 13.936 41.584 15.28 41.584C16.4933 41.584 17.548 41.8267 18.444 42.312C19.3587 42.7787 20.0867 43.3667 20.628 44.076V41.836H23.848V57.264H20.628V54.968C20.0867 55.696 19.3493 56.3027 18.416 56.788C17.4827 57.2733 16.4187 57.516 15.224 57.516C13.8987 57.516 12.6853 57.18 11.584 56.508C10.4827 55.8173 9.60533 54.8653 8.952 53.652C8.31733 52.42 8 51.0293 8 49.48ZM20.628 49.536C20.628 48.472 20.404 47.548 19.956 46.764C19.5267 45.98 18.9573 45.3827 18.248 44.972C17.5387 44.5613 16.7733 44.356 15.952 44.356C15.1307 44.356 14.3653 44.5613 13.656 44.972C12.9467 45.364 12.368 45.952 11.92 46.736C11.4907 47.5013 11.276 48.416 11.276 49.48C11.276 50.544 11.4907 51.4773 11.92 52.28C12.368 53.0827 12.9467 53.6987 13.656 54.128C14.384 54.5387 15.1493 54.744 15.952 54.744C16.7733 54.744 17.5387 54.5387 18.248 54.128C18.9573 53.7173 19.5267 53.12 19.956 52.336C20.404 51.5333 20.628 50.6 20.628 49.536Z" fill="url(#paint5_linear_2_5840)" />
    <path d="M35.8246 41.584C37.0379 41.584 38.1206 41.836 39.0726 42.34C40.0432 42.844 40.7992 43.5907 41.3406 44.58C41.8819 45.5693 42.1526 46.764 42.1526 48.164V57.264H38.9886V48.64C38.9886 47.2587 38.6432 46.204 37.9526 45.476C37.2619 44.7293 36.3192 44.356 35.1246 44.356C33.9299 44.356 32.9779 44.7293 32.2686 45.476C31.5779 46.204 31.2326 47.2587 31.2326 48.64V57.264H28.0406V41.836H31.2326V43.6C31.7552 42.9653 32.4179 42.4707 33.2206 42.116C34.0419 41.7613 34.9099 41.584 35.8246 41.584Z" fill="url(#paint6_linear_2_5840)" />
    <path d="M49.9482 44.44V52.98C49.9482 53.5587 50.0788 53.9787 50.3402 54.24C50.6202 54.4827 51.0868 54.604 51.7402 54.604H53.7002V57.264H51.1802C49.7428 57.264 48.6415 56.928 47.8762 56.256C47.1108 55.584 46.7282 54.492 46.7282 52.98V44.44H44.9082V41.836H46.7282V38H49.9482V41.836H53.7002V44.44H49.9482Z" fill="url(#paint7_linear_2_5840)" />
    <path d="M63.3341 57.516C61.8781 57.516 60.5621 57.1893 59.3861 56.536C58.2101 55.864 57.2861 54.9307 56.6141 53.736C55.9421 52.5227 55.6061 51.1227 55.6061 49.536C55.6061 47.968 55.9515 46.5773 56.6421 45.364C57.3328 44.1507 58.2755 43.2173 59.4701 42.564C60.6648 41.9107 61.9995 41.584 63.4741 41.584C64.9488 41.584 66.2835 41.9107 67.4781 42.564C68.6728 43.2173 69.6155 44.1507 70.3061 45.364C70.9968 46.5773 71.3421 47.968 71.3421 49.536C71.3421 51.104 70.9875 52.4947 70.2781 53.708C69.5688 54.9213 68.5981 55.864 67.3661 56.536C66.1528 57.1893 64.8088 57.516 63.3341 57.516ZM63.3341 54.744C64.1555 54.744 64.9208 54.548 65.6301 54.156C66.3581 53.764 66.9461 53.176 67.3941 52.392C67.8421 51.608 68.0661 50.656 68.0661 49.536C68.0661 48.416 67.8515 47.4733 67.4221 46.708C66.9928 45.924 66.4235 45.336 65.7141 44.944C65.0048 44.552 64.2395 44.356 63.4181 44.356C62.5968 44.356 61.8315 44.552 61.1221 44.944C60.4315 45.336 59.8808 45.924 59.4701 46.708C59.0595 47.4733 58.8541 48.416 58.8541 49.536C58.8541 51.1973 59.2741 52.4853 60.1141 53.4C60.9728 54.296 62.0461 54.744 63.3341 54.744Z" fill="url(#paint8_linear_2_5840)" />
    <path d="M82.2816 41.584C83.4949 41.584 84.5776 41.836 85.5296 42.34C86.5003 42.844 87.2563 43.5907 87.7976 44.58C88.3389 45.5693 88.6096 46.764 88.6096 48.164V57.264H85.4456V48.64C85.4456 47.2587 85.1003 46.204 84.4096 45.476C83.7189 44.7293 82.7763 44.356 81.5816 44.356C80.3869 44.356 79.4349 44.7293 78.7256 45.476C78.0349 46.204 77.6896 47.2587 77.6896 48.64V57.264H74.4976V41.836H77.6896V43.6C78.2123 42.9653 78.8749 42.4707 79.6776 42.116C80.4989 41.7613 81.3669 41.584 82.2816 41.584Z" fill="url(#paint9_linear_2_5840)" />
  </g>
  <defs>
    <linearGradient id="paint0_linear_2_5840" x1="-2.05005" y1="36.7549" x2="99.9719" y2="0.679714" gradientUnits="userSpaceOnUse">
      <stop stop-color="#00C0FD" />
      <stop offset="1" stop-color="#E70FAA" />
    </linearGradient>
    <linearGradient id="paint1_linear_2_5840" x1="-2.05004" y1="36.755" x2="99.972" y2="0.679755" gradientUnits="userSpaceOnUse">
      <stop stop-color="#00C0FD" />
      <stop offset="1" stop-color="#E70FAA" />
    </linearGradient>
    <linearGradient id="paint2_linear_2_5840" x1="-2.05001" y1="36.755" x2="99.972" y2="0.679757" gradientUnits="userSpaceOnUse">
      <stop stop-color="#00C0FD" />
      <stop offset="1" stop-color="#E70FAA" />
    </linearGradient>
    <linearGradient id="paint3_linear_2_5840" x1="-2.05005" y1="36.7549" x2="99.9719" y2="0.679708" gradientUnits="userSpaceOnUse">
      <stop stop-color="#00C0FD" />
      <stop offset="1" stop-color="#E70FAA" />
    </linearGradient>
    <linearGradient id="paint4_linear_2_5840" x1="-2.05008" y1="36.7549" x2="99.9719" y2="0.679722" gradientUnits="userSpaceOnUse">
      <stop stop-color="#00C0FD" />
      <stop offset="1" stop-color="#E70FAA" />
    </linearGradient>
    <linearGradient id="paint5_linear_2_5840" x1="8" y1="47.758" x2="88.6096" y2="47.758" gradientUnits="userSpaceOnUse">
      <stop stop-color="#00C0FD" />
      <stop offset="1" stop-color="#E70FAA" />
    </linearGradient>
    <linearGradient id="paint6_linear_2_5840" x1="8" y1="47.758" x2="88.6096" y2="47.758" gradientUnits="userSpaceOnUse">
      <stop stop-color="#00C0FD" />
      <stop offset="1" stop-color="#E70FAA" />
    </linearGradient>
    <linearGradient id="paint7_linear_2_5840" x1="8" y1="47.758" x2="88.6096" y2="47.758" gradientUnits="userSpaceOnUse">
      <stop stop-color="#00C0FD" />
      <stop offset="1" stop-color="#E70FAA" />
    </linearGradient>
    <linearGradient id="paint8_linear_2_5840" x1="8" y1="47.758" x2="88.6096" y2="47.758" gradientUnits="userSpaceOnUse">
      <stop stop-color="#00C0FD" />
      <stop offset="1" stop-color="#E70FAA" />
    </linearGradient>
    <linearGradient id="paint9_linear_2_5840" x1="8" y1="47.758" x2="88.6096" y2="47.758" gradientUnits="userSpaceOnUse">
      <stop stop-color="#00C0FD" />
      <stop offset="1" stop-color="#E70FAA" />
    </linearGradient>
    <clipPath id="clip0_2_5840">
      <rect width="97" height="59" fill="white" />
    </clipPath>
  </defs>


    <path id="git" fill-rule="evenodd" clip-rule="evenodd" d="M15 0C6.7125 0 0 6.7125 0 15C0 21.6375 4.29375 27.2437 10.2563 29.2313C11.0063 29.3625 11.2875 28.9125 11.2875 28.5188C11.2875 28.1625 11.2688 26.9813 11.2688 25.725C7.5 26.4188 6.525 24.8062 6.225 23.9625C6.05625 23.5312 5.325 22.2 4.6875 21.8438C4.1625 21.5625 3.4125 20.8687 4.66875 20.85C5.85 20.8313 6.69375 21.9375 6.975 22.3875C8.325 24.6562 10.4812 24.0187 11.3438 23.625C11.475 22.65 11.8688 21.9937 12.3 21.6187C8.9625 21.2437 5.475 19.95 5.475 14.2125C5.475 12.5813 6.05625 11.2313 7.0125 10.1813C6.8625 9.80625 6.3375 8.26875 7.1625 6.20625C7.1625 6.20625 8.41875 5.8125 11.2875 7.74375C12.4875 7.40625 13.7625 7.2375 15.0375 7.2375C16.3125 7.2375 17.5875 7.40625 18.7875 7.74375C21.6562 5.79375 22.9125 6.20625 22.9125 6.20625C23.7375 8.26875 23.2125 9.80625 23.0625 10.1813C24.0188 11.2313 24.6 12.5625 24.6 14.2125C24.6 19.9688 21.0938 21.2437 17.7563 21.6187C18.3 22.0875 18.7688 22.9875 18.7688 24.3937C18.7688 26.4 18.75 28.0125 18.75 28.5188C18.75 28.9125 19.0312 29.3813 19.7812 29.2313C22.759 28.2259 25.3465 26.3121 27.1796 23.7592C29.0127 21.2063 29.9991 18.1429 30 15C30 6.7125 23.2875 0 15 0Z"  />

    <path id="twitter" d="M15.875 0.875C7.59152 0.875 0.875 7.59152 0.875 15.875C0.875 24.1585 7.59152 30.875 15.875 30.875C24.1585 30.875 30.875 24.1585 30.875 15.875C30.875 7.59152 24.1585 0.875 15.875 0.875ZM23.0837 12.1819C23.0937 12.3393 23.0937 12.5033 23.0937 12.6641C23.0937 17.5792 19.3504 23.2411 12.51 23.2411C10.4007 23.2411 8.44531 22.6283 6.79799 21.5737C7.09933 21.6071 7.38728 21.6205 7.69531 21.6205C9.43638 21.6205 11.0368 21.0312 12.3125 20.0335C10.6786 20 9.3058 18.9286 8.83705 17.4554C9.4096 17.5391 9.92522 17.5391 10.5145 17.3884C9.67319 17.2175 8.91699 16.7605 8.37438 16.0953C7.83178 15.43 7.53623 14.5973 7.53795 13.7388V13.692C8.03013 13.9699 8.60938 14.1406 9.2154 14.1641C8.70595 13.8245 8.28814 13.3645 7.99903 12.8249C7.70993 12.2852 7.55845 11.6825 7.55804 11.0703C7.55804 10.3772 7.73884 9.74442 8.06362 9.19531C8.99744 10.3449 10.1627 11.2851 11.4837 11.9548C12.8047 12.6245 14.2518 13.0088 15.731 13.0826C15.2054 10.5547 17.0938 8.50893 19.3638 8.50893C20.4353 8.50893 21.3996 8.95759 22.0792 9.6808C22.9196 9.52344 23.7232 9.2087 24.4397 8.78683C24.1618 9.64732 23.5792 10.3739 22.8058 10.8326C23.5558 10.7522 24.279 10.5446 24.9487 10.2533C24.4431 10.9967 23.8103 11.6562 23.0837 12.1819Z" />

    <path id="linkedin" d="M15 0.600098C7.04698 0.600098 0.599976 7.0471 0.599976 15.0001C0.599976 22.9531 7.04698 29.4001 15 29.4001C22.953 29.4001 29.4 22.9531 29.4 15.0001C29.4 7.0471 22.953 0.600098 15 0.600098ZM11.475 20.9686H8.55898V11.5846H11.475V20.9686ZM9.99898 10.4326C9.07798 10.4326 8.48248 9.7801 8.48248 8.9731C8.48248 8.1496 9.09598 7.5166 10.0365 7.5166C10.977 7.5166 11.553 8.1496 11.571 8.9731C11.571 9.7801 10.977 10.4326 9.99898 10.4326ZM22.125 20.9686H19.209V15.7681C19.209 14.5576 18.786 13.7356 17.7315 13.7356C16.926 13.7356 16.4475 14.2921 16.236 14.8276C16.158 15.0181 16.1385 15.2881 16.1385 15.5566V20.9671H13.221V14.5771C13.221 13.4056 13.1835 12.4261 13.1445 11.5831H15.678L15.8115 12.8866H15.87C16.254 12.2746 17.1945 11.3716 18.768 11.3716C20.6865 11.3716 22.125 12.6571 22.125 15.4201V20.9686Z" />

    <g id="chain">
    <path d="M10.2867 7.71333C9.60408 7.03103 8.67846 6.64774 7.71334 6.64774C6.74821 6.64774 5.82259 7.03103 5.14 7.71333L2.56584 10.2867C1.88324 10.9693 1.49976 11.8951 1.49976 12.8604C1.49976 13.8258 1.88324 14.7516 2.56584 15.4342C3.24844 16.1168 4.17424 16.5002 5.13959 16.5002C6.10493 16.5002 7.03074 16.1168 7.71334 15.4342L9 14.1475" stroke="#FCFCFC" stroke-width="1.66667" stroke-linecap="round" stroke-linejoin="round" />
    <path d="M7.71338 10.2867C8.39597 10.969 9.32159 11.3523 10.2867 11.3523C11.2518 11.3523 12.1775 10.969 12.86 10.2867L15.4342 7.71334C16.1168 7.03074 16.5003 6.10493 16.5003 5.13959C16.5003 4.17424 16.1168 3.24844 15.4342 2.56584C14.7516 1.88324 13.8258 1.49976 12.8605 1.49976C11.8951 1.49976 10.9693 1.88324 10.2867 2.56584L9.00005 3.8525" stroke="#FCFCFC" stroke-width="1.66667" stroke-linecap="round" stroke-linejoin="round" />
    </g>

    <g id="arrow">
      <path d="M1 10H21"  stroke-width="2" stroke-linecap="round" stroke-linejoin="round" />
      <path d="M12.25 1.25L21 10L12.25 18.75"  stroke-width="2" stroke-linecap="round" stroke-linejoin="round" />
    </g>

    <g id="html">
    <path d="M22.1325 102.004L13.7063 7.5H106.294L97.8563 101.989L59.9438 112.5L22.1325 102.004Z" fill="#E44F26" />
    <path d="M60 104.468L90.6375 95.9738L97.845 15.2288H60V104.468Z" fill="#F1662A" />
    <path d="M60 50.2763H44.6625L43.605 38.4075H60V26.8163H30.9375L31.215 29.9288L34.0613 61.8675H60V50.2763ZM60 80.3775L59.9475 80.3925L47.04 76.9088L46.215 67.665H34.5787L36.2025 85.86L59.9475 92.4525L60 92.4375V80.3775Z" fill="#EBEBEB" />
    <path d="M59.9587 50.2763V61.8675H74.2312L72.8887 76.9013L59.9587 80.3888V92.4488L83.7225 85.86L83.895 83.9025L86.6175 53.3888L86.9025 50.2763H59.9587ZM59.9587 26.8163V38.4075H87.9562L88.1887 35.805L88.7175 29.9288L88.995 26.8163H59.9587Z" fill="white" />
    </g>

    <g id="css">
    <path d="M22.1325 101.154L13.71 7.4375H106.29L97.8562 101.139L59.9437 111.562L22.1325 101.154Z" fill="#1572B6" />
    <path d="M60 103.597L90.6375 95.1739L97.845 15.1018H60V103.597Z" fill="#33A9DC" />
    <path d="M60 49.054H75.3375L76.395 37.2842H60V25.7896H89.0625L88.785 28.8724L85.9387 60.5487H60V49.054V49.054Z" fill="white" />
    <path d="M60.0713 78.9045L60.0188 78.9193L47.1113 75.4609L46.2863 66.2942H34.65L36.2738 84.3413L60.015 90.8788L60.0713 90.864V78.9045V78.9045Z" fill="#EBEBEB" />
    <path d="M74.3513 60.0615L72.9563 75.4534L60.03 78.9119V90.8714L83.79 84.3412L83.9663 82.4001L85.98 60.0615H74.3513V60.0615Z" fill="white" />
    <path d="M60.0413 25.7896V37.2842H32.0438L31.8113 34.6997L31.2825 28.8724L31.005 25.7896H60.0413V25.7896ZM60 49.054V60.5487H47.2538L47.0213 57.9642L46.4963 52.1369L46.2188 49.054H60V49.054Z" fill="#EBEBEB" />
    </g>

    <g id="js">
    <path d="M7.5 7.5H112.5V112.5H7.5V7.5Z" fill="#F5DE19" />
    <path d="M78.0338 89.5312C78.9284 91.3485 80.3183 92.8759 82.0434 93.9375C83.7684 94.9991 85.7584 95.5515 87.7838 95.5313C91.8713 95.5313 94.485 93.4875 94.485 90.6562C94.485 87.2812 91.8 86.0738 87.3 84.105L84.8325 83.0475C77.7075 80.0138 72.9825 76.215 72.9825 68.1825C72.9825 60.7838 78.6075 55.1475 87.4313 55.1475C90.2877 54.9412 93.1416 55.5805 95.637 56.9856C98.1324 58.3907 100.159 60.4994 101.464 63.0488L93.75 67.98C93.2476 66.716 92.3728 65.6345 91.2416 64.879C90.1105 64.1236 88.7764 63.7298 87.4163 63.75C86.8229 63.6906 86.2236 63.7555 85.6567 63.9404C85.0897 64.1254 84.5675 64.4265 84.1234 64.8244C83.6792 65.2224 83.3228 65.7085 83.0769 66.2518C82.831 66.7951 82.7009 67.3837 82.695 67.98C82.695 70.9388 84.5288 72.1388 88.7625 73.98L91.23 75.0375C99.615 78.6338 104.355 82.2975 104.355 90.5363C104.355 99.42 97.3763 104.287 88.005 104.287C84.3537 104.52 80.713 103.691 77.5223 101.901C74.3317 100.11 71.7274 97.4342 70.0238 94.1963L78.0338 89.5312ZM43.1775 90.3863C44.7263 93.135 46.1363 95.46 49.5263 95.46C52.7663 95.46 54.8138 94.1925 54.8138 89.2612V55.71H64.68V89.3925C64.68 99.6075 58.68 104.257 49.9463 104.257C46.8591 104.426 43.7931 103.657 41.1513 102.051C38.5096 100.444 36.4157 98.0761 35.145 95.2575L43.1775 90.3863Z" fill="black" />
    </g>

    <path id="react" d="M92.9056 32.7028C91.7031 32.2887 90.4904 31.9051 89.2687 31.5524C89.4739 30.7107 89.6628 29.8792 89.8306 29.0624C92.5838 15.6484 90.7839 4.84184 84.6361 1.28381C78.7416 -2.12716 69.1016 1.42955 59.3659 9.93348C58.4064 10.7731 57.4682 11.6369 56.5522 12.524C55.9389 11.9341 55.3149 11.3556 54.6803 10.7889C44.4767 1.69623 34.2493 -2.13602 28.1081 1.43221C22.2189 4.8538 20.475 15.0127 22.9538 27.7254C23.2004 28.9845 23.4788 30.2371 23.7888 31.4819C22.3412 31.8948 20.9442 32.3342 19.6073 32.802C7.64443 36.9882 0.00476074 43.5483 0.00476074 50.353C0.00476074 57.3809 8.20629 64.4301 20.6662 68.7044C21.6763 69.0495 22.6949 69.3693 23.7209 69.6635C23.3877 71.0042 23.0918 72.3541 22.8337 73.7114C20.4706 86.2035 22.316 96.1224 28.1893 99.5223C34.2555 103.033 44.437 99.4248 54.3506 90.7268C55.1545 90.0197 55.9407 89.2925 56.7084 88.546C57.7004 89.5067 58.7189 90.4394 59.7627 91.343C69.366 99.6365 78.8502 102.985 84.7177 99.5763C90.7782 96.055 92.748 85.3995 90.1907 72.4357C89.9893 71.42 89.7634 70.4094 89.5132 69.4048C90.2282 69.1921 90.93 68.9733 91.6141 68.7456C104.567 64.4385 112.995 57.4748 112.995 50.353C112.995 43.5235 105.109 36.9191 92.9056 32.7028ZM90.0963 64.1474C89.4783 64.3525 88.8445 64.5506 88.1984 64.7433C86.7683 60.1996 84.8387 55.3684 82.4769 50.3764C84.7305 45.5036 86.586 40.7341 87.9759 36.2201C89.1319 36.5558 90.2534 36.9098 91.3347 37.2832C101.791 40.8962 108.169 46.2372 108.169 50.353C108.169 54.7367 101.281 60.4277 90.0963 64.1474ZM85.4557 73.3765C86.5865 79.1087 86.7476 84.2916 85.9986 88.3436C85.3259 91.9845 83.9727 94.4116 82.299 95.3839C78.7385 97.4526 71.1235 94.7637 62.911 87.6707C61.9401 86.8305 60.9927 85.9634 60.0699 85.0704C63.2539 81.5757 66.4358 77.5131 69.5412 73.0009C75.0036 72.5145 80.1641 71.7189 84.844 70.6332C85.0694 71.5426 85.2734 72.4574 85.4557 73.3765ZM38.5257 95.0264C35.0469 96.2592 32.2759 96.2947 30.6009 95.3254C27.0369 93.2625 25.5552 85.2981 27.5762 74.6151C27.8165 73.3527 28.0916 72.0973 28.4012 70.8502C33.0294 71.8779 38.1523 72.6168 43.6275 73.0625C46.7542 77.4777 50.0278 81.5358 53.3271 85.0894C52.6259 85.7704 51.9082 86.4339 51.1745 87.0793C46.7904 90.9253 42.3974 93.6541 38.5257 95.0264ZM22.2277 64.1204C16.7181 62.2302 12.168 59.7739 9.04931 57.0934C6.24661 54.6849 4.83202 52.2932 4.83202 50.353C4.83202 46.2235 10.9657 40.9564 21.1962 37.3767C22.4378 36.9426 23.7372 36.5328 25.0856 36.1483C26.4997 40.7642 28.3544 45.5905 30.5926 50.4708C28.3252 55.4233 26.4441 60.3267 25.0163 64.9971C24.0798 64.7278 23.15 64.4355 22.2277 64.1204ZM27.691 26.7947C25.5676 15.9031 26.9777 7.68712 30.5268 5.62504C34.3067 3.42873 42.6653 6.56017 51.4755 14.4116C52.05 14.9247 52.6152 15.4483 53.1708 15.982C49.8879 19.5201 46.6443 23.5481 43.5454 27.9372C38.2313 28.4315 33.1446 29.2254 28.4678 30.289C28.1797 29.1311 27.9206 27.9661 27.691 26.7952V26.7947ZM76.4301 38.874C75.3255 36.9589 74.1799 35.068 72.9941 33.2025C76.5992 33.6601 80.0533 34.2674 83.297 35.0098C82.3233 38.1426 81.1095 41.4176 79.6808 44.7754C78.6365 42.7867 77.5527 40.8192 76.4301 38.874ZM56.5544 19.4443C58.7806 21.8652 61.0104 24.5679 63.2036 27.5004C58.7546 27.2895 54.2982 27.2886 49.8491 27.4977C52.0445 24.5922 54.2932 21.8931 56.5544 19.4443ZM36.5511 38.9072C35.4425 40.8368 34.3789 42.792 33.3613 44.7714C31.956 41.4255 30.7532 38.1355 29.7712 34.9584C32.9949 34.2346 36.4328 33.6428 40.0149 33.1936C38.8159 35.0705 37.661 36.9754 36.5511 38.9067V38.9072ZM40.1178 67.857C36.4169 67.4424 32.9274 66.8811 29.7045 66.1768C30.702 62.943 31.9312 59.583 33.367 56.1653C34.3887 58.1462 35.4567 60.1026 36.57 62.0331C37.7149 64.0177 38.9005 65.9615 40.1178 67.857ZM56.6877 81.6027C54.3996 79.1256 52.1177 76.3848 49.8892 73.4372C52.0528 73.5223 54.2584 73.5657 56.5001 73.5657C58.8031 73.5657 61.0797 73.5139 63.3206 73.4138C61.1203 76.4145 58.8989 79.1592 56.6877 81.6027ZM79.7263 55.9908C81.2366 59.4461 82.5096 62.7884 83.5203 65.9668C80.2444 66.7172 76.7073 67.3214 72.9804 67.7702C74.1746 65.87 75.3311 63.9462 76.4491 61.9999C77.5858 60.0215 78.6784 58.018 79.7263 55.9908ZM72.268 59.5794C70.5565 62.5635 68.7487 65.491 66.8475 68.3571C63.4038 68.6019 59.9525 68.7235 56.5001 68.7217C52.9837 68.7217 49.5635 68.6118 46.27 68.3974C44.3193 65.5379 42.477 62.6053 40.7472 59.606H40.7476C39.0259 56.6225 37.4177 53.5745 35.9265 50.4686C37.4139 47.3619 39.0172 44.3125 40.733 41.3268L40.7326 41.3272C42.4478 38.3407 44.2753 35.4207 46.2113 32.5734C49.5715 32.3183 53.0172 32.1854 56.4996 32.1854H56.5001C59.9984 32.1854 63.4486 32.3196 66.8078 32.5765C68.7243 35.4195 70.5402 38.3295 72.2521 41.3011C73.9736 44.2802 75.5982 47.3148 77.1231 50.3999C75.6138 53.5166 73.9944 56.5784 72.268 59.5794ZM82.2253 5.48062C86.0087 7.67073 87.4803 16.5025 85.103 28.0842C84.9512 28.8231 84.7808 29.5758 84.5955 30.339C79.9072 29.2528 74.8169 28.4453 69.4874 27.9434C66.3828 23.506 63.1656 19.4718 59.9361 15.9793C60.7825 15.1605 61.6491 14.3628 62.5349 13.5872C70.8768 6.30147 78.6732 3.42474 82.2253 5.48062ZM56.5001 40.2264C62.0724 40.2264 66.5898 44.7603 66.5898 50.353C66.5898 55.9456 62.0724 60.4796 56.5001 60.4796C50.9278 60.4796 46.4104 55.9456 46.4104 50.353C46.4104 44.7603 50.9278 40.2264 56.5001 40.2264Z" fill="#00D8FF" />

    <path id="git-skill" fill-rule="evenodd" clip-rule="evenodd" d="M60 0C26.85 0 0 26.85 0 60C0 86.55 17.175 108.975 41.025 116.925C44.025 117.45 45.15 115.65 45.15 114.075C45.15 112.65 45.075 107.925 45.075 102.9C30 105.675 26.1 99.225 24.9 95.85C24.225 94.125 21.3 88.8 18.75 87.375C16.65 86.25 13.65 83.475 18.675 83.4C23.4 83.325 26.775 87.75 27.9 89.55C33.3 98.625 41.925 96.075 45.375 94.5C45.9 90.6 47.475 87.975 49.2 86.475C35.85 84.975 21.9 79.8 21.9 56.85C21.9 50.325 24.225 44.925 28.05 40.725C27.45 39.225 25.35 33.075 28.65 24.825C28.65 24.825 33.675 23.25 45.15 30.975C49.95 29.625 55.05 28.95 60.15 28.95C65.25 28.95 70.35 29.625 75.15 30.975C86.625 23.175 91.65 24.825 91.65 24.825C94.95 33.075 92.85 39.225 92.25 40.725C96.075 44.925 98.4 50.25 98.4 56.85C98.4 79.875 84.375 84.975 71.025 86.475C73.2 88.35 75.075 91.95 75.075 97.575C75.075 105.6 75 112.05 75 114.075C75 115.65 76.125 117.525 79.125 116.925C91.0359 112.904 101.386 105.248 108.718 95.0368C116.051 84.8252 119.996 72.5714 120 60C120 26.85 93.15 0 60 0Z" fill="#FFFEFE" />

    <g id="styled-components">
      <path d="M68.7672 118.279C68.9472 117.872 69.4014 117.589 69.7314 117.246C74.7665 111.967 79.8444 106.735 84.811 101.391C86.3651 99.9558 87.5661 98.1804 88.3199 96.2036C89.0737 94.2269 89.36 92.1026 89.1562 89.9968C89.0003 89.0951 88.7957 88.2025 88.5434 87.3229C87.1893 88.6084 85.9294 89.7783 84.661 90.9567C82.6898 92.7908 80.7272 94.6334 78.7389 96.4461C77.5664 97.6415 76.0589 98.4531 74.4155 98.7737C72.772 99.0943 71.07 98.9087 69.5342 98.2416C67.9796 97.6705 66.6269 96.6553 65.6442 95.3221C64.6614 93.9889 64.0919 92.3965 64.0063 90.7425C63.9603 90.5297 63.8987 90.3206 63.8221 90.1168C62.3094 91.4024 60.861 92.5851 59.4254 93.8021L29.5875 119.085C29.3818 119.261 29.159 119.479 28.9662 119.65H68.7458L68.6858 119.612C68.4715 119.462 68.5829 118.673 68.7672 118.279Z" fill="#FFCEBF" />
      <path d="M27.1436 118.279C27.4974 117.818 27.9245 117.418 28.4077 117.096L69.7 82.0642C72.5168 79.6731 75.3207 77.2691 78.1118 74.8522C78.4567 74.6118 78.727 74.2791 78.8918 73.8924C79.5594 70.9831 79.654 67.9717 79.1703 65.0263C78.7418 65.3262 78.5104 65.4548 78.3132 65.6648C74.9322 68.6901 71.5683 71.7412 68.1702 74.7494C67.0445 75.8824 65.5885 76.6292 64.0116 76.8825C62.4346 77.1359 60.818 76.8826 59.3941 76.1592C57.9414 75.4734 56.7256 74.3709 55.9014 72.992C55.0773 71.6131 54.682 70.0201 54.766 68.4159V67.0275C54.1447 67.4817 53.6905 67.7859 53.2662 68.1287C36.7396 81.3615 20.2159 94.5842 3.69496 107.797C2.94933 108.393 2.05801 109.721 1.08098 108.431C0.103957 107.141 1.59092 106.61 2.34083 106.01C19.953 91.8774 37.5738 77.7576 55.2031 63.6507C58.0742 61.3496 58.2628 60.3854 56.3944 56.7301L55.2803 57.7757C52.2249 60.6168 49.1353 63.4193 46.1271 66.3075C44.8931 67.4978 43.3476 68.3148 41.6691 68.6641C39.9906 69.0135 38.2476 68.8809 36.6412 68.2818C35.0348 67.6827 33.6306 66.6415 32.5908 65.2784C31.5509 63.9153 30.9178 62.2858 30.7646 60.5782C30.1947 61.0067 29.7019 61.3196 29.2348 61.6838L3.09503 81.9443C2.64419 82.3864 2.13005 82.7591 1.5695 83.0498C1.14643 83.1777 0.692134 83.155 0.283936 82.9856V119.671H27.0922C26.9925 119.451 26.9453 119.21 26.9542 118.969C26.9631 118.727 27.028 118.491 27.1436 118.279Z" fill="#FFCEBF" />
      <path d="M99.5654 1.82096C98.8369 4.20782 98.1298 6.59897 97.4913 9.01154C96.9016 10.7164 96.9702 12.5802 97.6837 14.2371C98.3972 15.8941 99.7041 17.2246 101.348 17.9676C106.376 20.6107 112.043 21.798 117.709 21.3958V2.22806C117.646 1.80781 117.669 1.37914 117.777 0.968207C117.897 0.73576 118.049 0.520916 118.227 0.329712H99.5482C99.8353 0.663958 99.7368 1.25103 99.5654 1.82096Z" fill="#FF6196" />
      <path d="M62.0511 42.9976C61.9623 45.137 61.2139 47.1966 59.9085 48.894C55.242 54.9179 49.8829 60.3719 43.9418 65.1435C42.9837 66.0304 41.7694 66.591 40.473 66.745C39.1766 66.8989 37.8647 66.6383 36.7255 66.0005C35.5917 65.5161 34.6357 64.6925 33.9889 63.6428C33.342 62.5932 33.0361 61.369 33.1131 60.1384C33.2503 58.627 33.8779 57.202 34.9 56.0803C41.5435 49.7455 48.7415 44.019 56.4075 38.9695C56.9096 38.5758 57.5227 38.3499 58.1602 38.3237C58.7977 38.2976 59.4273 38.4725 59.9599 38.8238C60.66 39.2585 61.2259 39.8786 61.5951 40.6153C61.9642 41.352 62.122 42.1766 62.0511 42.9976Z" fill="#FF87AF" />
      <path d="M56.9127 68.97C56.8132 68.0228 56.9348 67.0654 57.2679 66.1731C57.6011 65.2809 58.1366 64.478 58.8325 63.8277C65.3374 57.8281 72.3164 52.3638 79.7014 47.4883C79.9243 47.3468 80.13 47.2054 80.3742 47.0597C81.0193 46.594 81.8009 46.356 82.596 46.3832C83.3912 46.4103 84.1547 46.7011 84.7665 47.2097C85.3585 47.7112 85.7774 48.3865 85.9635 49.1396C86.1497 49.8928 86.0937 50.6854 85.8036 51.4049C84.8693 54.5168 83.1449 57.3337 80.7984 59.5811C76.033 64.2758 71.1755 68.8762 66.2287 73.3795C65.4838 74.1456 64.5052 74.6422 63.447 74.7911C62.3889 74.9401 61.3112 74.7329 60.3837 74.2022C59.4091 73.6958 58.5792 72.9499 57.9721 72.0347C57.3649 71.1194 57.0004 70.0648 56.9127 68.97Z" fill="#FF87AF" />
      <path d="M87.8344 71.8015C86.6346 73.0871 85.4004 74.3126 84.2477 75.6282C83.9011 76.1367 83.6136 76.683 83.3907 77.2566C84.0249 77.4451 84.7662 77.9422 85.2804 77.7665C87.8987 76.888 90.4527 75.8339 93.3281 74.724C92.7024 76.1638 92.231 77.4922 91.5668 78.7092C88.8305 83.3078 85.4038 87.4587 81.4066 91.0164C79.8868 92.4819 78.3084 93.8832 76.6715 95.2201C75.8046 95.9395 74.7622 96.4157 73.6509 96.6001C72.5396 96.7844 71.3992 96.6702 70.3465 96.2692C69.2938 95.8681 68.3665 95.1947 67.6595 94.3176C66.9525 93.4406 66.4912 92.3916 66.3227 91.2778C66.254 90.6585 66.3087 90.0317 66.4838 89.4337C66.6589 88.8357 66.9507 88.2784 67.3426 87.7939C73.174 81.4614 79.8384 75.9503 87.1531 71.4115C87.242 71.3771 87.3363 71.3582 87.4316 71.3558L87.8344 71.8015Z" fill="#FF87AF" />
      <path d="M97.6724 54.7335L105.004 22.1659L110.147 23.37L107.494 31.4305C105.017 38.9296 102.51 46.4287 100.093 53.9364C99.6221 55.3248 99.0051 55.5819 97.6724 54.7335Z" fill="#FF6196" />
      <path d="M89.3859 73.8885C90.1615 70.9274 90.9328 68.1892 91.5842 65.421C92.219 62.7364 93.4264 60.2207 95.1238 58.0461C96.1651 56.6791 97.3349 57.2234 98.5305 57.519C99.6361 57.789 99.9146 58.5989 99.9618 59.6616C100.136 62.6005 99.2411 65.5031 97.4421 67.8335C95.3003 70.4887 92.5318 72.5695 89.3859 73.8885Z" fill="#FF6196" />
      <path d="M119.944 3.83434C120.008 2.87987 119.983 1.92154 119.871 0.971562C119.783 0.706208 119.607 0.478293 119.374 0.324437C119.184 0.169745 118.961 0.0598866 118.723 0.00301762C118.585 -0.0226959 118.393 0.118728 118.208 0.320151C118.03 0.511373 117.878 0.726237 117.758 0.958705C117.65 1.36968 117.627 1.79838 117.69 2.21867V21.3838C112.023 21.7861 106.357 20.5987 101.329 17.9554C99.685 17.2123 98.3781 15.8816 97.6646 14.2245C96.951 12.5675 96.8824 10.7035 97.4722 8.99848C98.1107 6.58569 98.8178 4.19433 99.5462 1.80725C99.7177 1.23727 99.8162 0.650142 99.5462 0.315866C99.3961 0.153137 99.1888 0.0548462 98.9677 0.0415882C98.6847 0.0446418 98.4105 0.141055 98.1878 0.315866C97.8674 0.507563 97.6121 0.791293 97.4551 1.13013C96.598 3.70149 95.8438 6.29855 95.1882 8.92134C94.9407 9.95489 94.874 11.0235 94.9911 12.0798C95.1569 13.9911 95.8676 15.8146 97.0389 17.3339C98.2102 18.8532 99.7928 20.0045 101.599 20.651C102.409 20.9896 102.884 21.3238 102.657 22.391C102.344 23.7452 102.04 25.0995 101.732 26.458C99.632 35.6634 97.5436 44.8732 95.4667 54.0872C95.4082 54.498 95.2275 54.8817 94.9482 55.1886C93.5793 56.2768 92.4291 57.6146 91.5586 59.1313C90.4493 61.1329 89.6817 63.3055 89.2875 65.5597C89.2118 66.2788 88.952 66.9662 88.5331 67.5555C88.1143 68.1448 87.5505 68.6161 86.8963 68.9239C85.1094 69.8282 83.4682 70.9982 81.4841 72.2153C81.6164 69.8291 81.5906 67.4368 81.407 65.054C81.256 64.3211 81.288 63.5622 81.5003 62.8445C81.7126 62.1269 82.0985 61.4727 82.624 60.9399C85.2375 58.3505 87.1005 55.1011 88.0148 51.5373C88.2878 50.7112 88.3627 49.8324 88.2333 48.972C88.104 48.1116 87.774 47.2937 87.27 46.5844C86.7661 45.8752 86.1023 45.2944 85.3324 44.8892C84.5626 44.484 83.7081 44.2656 82.8382 44.2518C81.4298 44.2361 80.047 44.6291 78.8573 45.3832C74.7683 48.1757 70.7504 51.0708 66.8073 54.0658C64.4633 55.8314 62.2564 57.7857 59.9852 59.637C59.8873 59.5319 59.8025 59.4153 59.7324 59.2899C59.689 58.9744 59.604 58.666 59.4796 58.3728C57.5812 55.4415 58.8968 53.3115 60.958 51.1216C63.1053 48.8704 64.2919 45.8715 64.2661 42.7604C64.3327 41.1752 63.8363 39.6176 62.8649 38.3634C62.3474 37.7267 61.7096 37.1981 60.988 36.8077C59.9629 36.2466 58.7908 36.0124 57.6289 36.1365C56.467 36.2606 55.3708 36.7371 54.4873 37.502L53.2917 38.3591C50.5621 40.3133 47.7981 42.2161 45.1713 44.3075C41.3364 47.3694 37.5841 50.5333 33.9183 53.7958C32.2042 55.3086 30.953 57.3743 29.1746 58.7799C19.9014 66.104 10.5297 73.2952 1.1922 80.5336C0.871132 80.7252 0.575909 80.957 0.313735 81.2236C0.286745 81.2626 0.263774 81.3042 0.245172 81.3479C0.0480521 81.8064 -0.119071 82.565 0.112331 82.8435C0.169054 82.904 0.23761 82.9521 0.313735 82.985C0.721934 83.1544 1.17623 83.1771 1.5993 83.0492C2.15985 82.7584 2.67399 82.3858 3.12483 81.9436L29.2646 61.6813C29.7317 61.317 30.2245 60.987 30.7944 60.5756C30.9476 62.2834 31.5807 63.9129 32.6206 65.2762C33.6604 66.6394 35.0646 67.6808 36.671 68.2799C38.2774 68.8791 40.0204 69.0116 41.6989 68.6622C43.3774 68.3128 44.9229 67.4958 46.1569 66.3054C49.1565 63.4169 52.2547 60.6142 55.3101 57.7728L56.4242 56.7271C58.2926 60.3827 58.104 61.347 55.2329 63.6484C37.5893 77.768 19.9585 91.8904 2.34064 106.016C1.59073 106.616 0.108046 107.16 1.08079 108.437C2.05353 109.714 2.94914 108.399 3.69476 107.803C20.2242 94.6003 36.7423 81.3807 53.2489 68.144C53.6774 67.8011 54.1274 67.4968 54.7487 67.0426V68.4311C54.6647 70.0355 55.0599 71.6286 55.8841 73.0076C56.7082 74.3867 57.924 75.4893 59.3767 76.1752C60.8007 76.8986 62.4173 77.1519 63.9942 76.8985C65.5711 76.6452 67.0271 75.8983 68.1528 74.7652C71.551 71.7653 74.9149 68.7054 78.2959 65.6797C78.5102 65.4869 78.7587 65.3412 79.153 65.0412C79.6367 67.9869 79.542 70.9986 78.8744 73.9081C78.7096 74.2949 78.4394 74.6276 78.0945 74.868C75.3005 77.2823 72.4966 79.6865 69.6826 82.0807L28.4075 117.12C27.9243 117.442 27.4972 117.842 27.1434 118.303C27.0305 118.513 26.9672 118.746 26.9582 118.984C26.9493 119.223 26.9951 119.46 27.092 119.678C27.2856 119.823 27.5094 119.923 27.7468 119.97C27.9842 120.016 28.2291 120.009 28.4633 119.948C28.648 119.895 28.8181 119.799 28.9603 119.67C29.1746 119.498 29.3889 119.28 29.5817 119.104L59.4196 93.8189C60.8551 92.6018 62.3035 91.4019 63.8162 90.1333C63.8928 90.3371 63.9544 90.5462 64.0005 90.759C64.0861 92.4132 64.6556 94.0058 65.6383 95.3391C66.6211 96.6724 67.9737 97.6876 69.5284 98.2588C71.0641 98.926 72.7662 99.1116 74.4096 98.791C76.053 98.4704 77.5606 97.6587 78.733 96.4632C80.7213 94.6503 82.684 92.8075 84.6552 90.9733C85.9407 89.7948 87.1834 88.6119 88.5376 87.3391C88.7898 88.2188 88.9944 89.1115 89.1503 90.0133C89.3473 92.1123 89.0578 94.2285 88.3042 96.1974C87.5506 98.1663 86.3532 99.9349 84.8051 101.366C79.8386 106.714 74.7606 111.947 69.7255 117.223C69.3955 117.565 68.9413 117.848 68.7613 118.255C68.5813 118.663 68.4657 119.46 68.6799 119.631L68.7399 119.67C69.1892 119.888 69.6945 119.964 70.1883 119.888C70.3267 119.86 70.45 119.782 70.5354 119.67C70.6554 119.545 70.7711 119.391 70.8868 119.275C74.9663 115.058 79.0672 110.863 83.1168 106.616C84.7513 104.959 86.288 103.209 87.7191 101.374C89.5851 99.3085 90.8224 96.7525 91.2855 94.0073C91.7486 91.262 91.4181 88.4416 90.3331 85.8777C90.2164 85.3061 90.3304 84.7115 90.6502 84.2235C90.9287 83.7435 91.2372 83.2764 91.5543 82.8135C92.569 81.496 93.4141 80.0562 94.0698 78.5279C95.3368 74.7772 97.2817 71.2909 99.8076 68.2425C100.969 66.7701 101.768 65.0453 102.14 63.2074C102.512 61.3694 102.447 59.4696 101.95 57.6614C101.775 56.9739 101.775 56.2533 101.95 55.5657C104.119 48.8502 106.351 42.1561 108.562 35.4577L111.519 26.4837L112.432 23.7109C114.377 23.7109 116.211 23.6724 118.037 23.7109C119.554 23.7538 120.017 23.0424 120 21.5681C119.91 15.654 119.944 9.74417 119.944 3.83434V3.83434ZM43.9371 65.144C42.9791 66.031 41.7647 66.5916 40.4683 66.7456C39.1719 66.8996 37.86 66.639 36.7208 66.0012C35.587 65.5167 34.631 64.693 33.9842 63.6432C33.3373 62.5935 33.0314 61.3691 33.1084 60.1385C33.2457 58.627 33.8732 57.2018 34.8953 56.08C41.5388 49.7447 48.7368 44.0176 56.4028 38.9676C56.8212 38.6718 57.2972 38.4674 57.7998 38.3676C58.1369 38.3055 58.4825 38.3055 58.8197 38.3676C59.2234 38.4463 59.6086 38.6004 59.9552 38.8219C60.656 39.257 61.2224 39.8778 61.5916 40.6154C61.9607 41.3531 62.1182 42.1786 62.0464 43.0004C61.9576 45.14 61.2092 47.1998 59.9038 48.8974C55.237 54.9203 49.878 60.3734 43.9371 65.144V65.144ZM66.2202 73.4109C65.4752 74.1771 64.4966 74.6738 63.4385 74.8227C62.3803 74.9717 61.3027 74.7645 60.3752 74.2338C59.3988 73.7262 58.5678 72.9782 57.9605 72.0605C57.3533 71.1427 56.9897 70.0854 56.9042 68.9882C56.8047 68.0409 56.9263 67.0835 57.2594 66.1911C57.5925 65.2988 58.1281 64.4958 58.8239 63.8455C65.3288 57.8453 72.3078 52.3805 79.6929 47.5045C79.9157 47.3631 80.1214 47.2217 80.3657 47.076C81.0107 46.6102 81.7923 46.3722 82.5875 46.3994C83.3826 46.4265 84.1462 46.7173 84.758 47.226C85.35 47.7275 85.7688 48.4028 85.955 49.156C86.1412 49.9093 86.0852 50.702 85.795 51.4216C84.8607 54.5337 83.1364 57.3508 80.7899 59.5985C76.0633 64.3212 71.1482 68.8682 66.2288 73.3938L66.2202 73.4109ZM91.5501 78.7294C88.8175 83.3211 85.3967 87.4664 81.407 91.0205C79.8871 92.4861 78.3088 93.8875 76.6718 95.2246C75.8049 95.9441 74.7625 96.4203 73.6512 96.6047C72.5399 96.789 71.3996 96.6748 70.3469 96.2737C69.2942 95.8727 68.3669 95.1991 67.6599 94.322C66.9529 93.445 66.4915 92.3958 66.323 91.2819C66.2543 90.6625 66.3091 90.0357 66.4842 89.4377C66.6592 88.8396 66.9511 88.2822 67.3429 87.7977C73.1743 81.4647 79.8387 75.953 87.1534 71.4139C87.2424 71.3794 87.3366 71.3605 87.432 71.3581L87.8605 71.7867C86.6606 73.0724 85.4265 74.2981 84.2738 75.6137C83.9272 76.1223 83.6396 76.6686 83.4167 77.2423C84.0509 77.4308 84.7923 77.928 85.3065 77.7523C87.3763 77.058 89.4117 76.2523 91.5929 75.3952L93.3541 74.7095C92.6942 76.1666 92.2228 77.4951 91.5586 78.7122L91.5501 78.7294ZM97.4336 67.8654C95.8352 69.9005 93.8317 71.5817 91.5501 72.8024C90.8444 73.1967 90.1202 73.5652 89.3775 73.9081C90.1402 70.9896 90.903 68.2854 91.5501 65.5512L91.5758 65.4397C92.2106 62.7549 93.418 60.239 95.1153 58.0642C96.1566 56.6971 97.3265 57.2414 98.5221 57.5371C99.6277 57.8071 99.9062 58.6171 99.9533 59.6799C100.129 62.6165 99.2372 65.5176 97.4422 67.8482L97.4336 67.8654ZM107.461 31.4378C104.984 38.9376 102.477 46.4374 100.06 53.9458C99.6062 55.3557 98.9892 55.6129 97.6565 54.7643L104.011 26.5094L104.988 22.1724L110.131 23.3766L109.098 26.5094L107.461 31.4378Z" fill="black" />
    </g>

    <g id="typescript">
      <path d="M0 60V120H60H120V60V0H60H0V60Z" fill="#007ACC" />
      <path d="M26.5374 60.3979L26.4993 65.3122H34.3088H42.1184L42.1184 87.5026V109.693H47.6422H53.166V87.5026L53.166 65.3122H60.9755H68.785V60.4931C68.785 57.8264 68.7279 55.5979 68.6517 55.5407C68.5946 55.4645 59.0898 55.4264 47.566 55.4455L26.5946 55.5026L26.5374 60.3979Z" fill="white" />
      <path d="M96.8264 55.3636C99.874 56.1255 102.198 57.4779 104.331 59.6874C105.436 60.8684 107.074 63.0208 107.207 63.535C107.245 63.6874 102.026 67.1922 98.8644 69.1541C98.7502 69.2303 98.293 68.7351 97.7787 67.9731C96.2359 65.7255 94.6168 64.7541 92.1406 64.5827C88.5025 64.335 86.1597 66.2398 86.1787 69.4208C86.1787 70.3541 86.3121 70.9065 86.693 71.6684C87.493 73.3255 88.9787 74.316 93.6454 76.3351C102.236 80.0303 105.912 82.4684 108.198 85.935C110.75 89.8017 111.322 95.9731 109.588 100.564C107.683 105.554 102.96 108.945 96.3121 110.068C94.2549 110.43 89.3787 110.373 87.1692 109.973C82.3502 109.116 77.7787 106.735 74.9597 103.611C73.8549 102.392 71.7025 99.2112 71.8359 98.9827C71.893 98.9065 72.3883 98.6017 72.9406 98.2779C73.474 97.9731 75.493 96.8112 77.3978 95.7065L80.8454 93.7065L81.5692 94.7731C82.5787 96.316 84.7883 98.4303 86.1216 99.135C89.9502 101.154 95.2073 100.868 97.7978 98.5446C98.9025 97.535 99.3597 96.4874 99.3597 94.9446C99.3597 93.5541 99.1883 92.9446 98.4644 91.897C97.5311 90.5636 95.6263 89.4398 90.2168 87.097C84.0263 84.4303 81.3597 82.7731 78.9216 80.1446C77.5121 78.6208 76.1787 76.1827 75.6264 74.1446C75.1692 72.4493 75.0549 68.2017 75.4168 66.4874C76.693 60.5065 81.2073 56.335 87.7216 55.097C89.8359 54.697 94.7502 54.8493 96.8264 55.3636Z" fill="white" />
    </g>
    <g id="vscode">
     <path d="M101.535 17.605L81.354 7.88899C80.2143 7.33948 78.9319 7.15814 77.6845 7.37011C76.4372 7.58208 75.2867 8.17686 74.3925 9.07199L8.32998 69.3C7.52845 70.0273 7.04865 71.0432 6.99614 72.1243C6.94363 73.2053 7.32271 74.2629 8.04998 75.0645C8.13748 75.159 8.22498 75.25 8.31948 75.334L13.713 80.234C14.4178 80.8754 15.3249 81.2497 16.277 81.2919C17.229 81.3341 18.1657 81.0416 18.9245 80.465L98.497 20.125C99.098 19.6689 99.8144 19.3897 100.566 19.3186C101.317 19.2476 102.073 19.3877 102.749 19.7231C103.424 20.0585 103.993 20.5758 104.391 21.217C104.789 21.8581 105 22.5975 105 23.352V23.1175C105 21.9656 104.675 20.8372 104.062 19.862C103.449 18.8868 102.573 18.1045 101.535 17.605Z" fill="#0065A9" />
    <path d="M101.535 94.395L81.354 104.115C80.214 104.662 78.9319 104.843 77.6849 104.631C76.4379 104.419 75.2875 103.825 74.3925 102.932L8.32998 42.7C7.52845 41.9727 7.04865 40.9568 6.99614 39.8758C6.94363 38.7947 7.32271 37.7371 8.04998 36.9355C8.13748 36.841 8.22498 36.75 8.31948 36.666L13.713 31.766C14.4185 31.1219 15.3277 30.7459 16.2821 30.7037C17.2365 30.6615 18.1754 30.9557 18.935 31.535L98.497 91.875C99.098 92.3311 99.8144 92.6104 100.566 92.6814C101.317 92.7524 102.073 92.6123 102.749 92.2769C103.424 91.9415 103.993 91.4242 104.391 90.783C104.789 90.1419 105 89.4025 105 88.648V88.9C104.996 90.0488 104.669 91.1733 104.057 92.1451C103.444 93.1168 102.57 93.8965 101.535 94.395Z" fill="#007ACC" />
    <path d="M81.354 104.115C80.214 104.662 78.932 104.843 77.685 104.631C76.438 104.419 75.2876 103.825 74.3925 102.932C74.8952 103.428 75.533 103.764 76.2261 103.899C76.9193 104.035 77.6369 103.962 78.289 103.691C78.9412 103.42 79.4988 102.963 79.8921 102.376C80.2855 101.79 80.4969 101.1 80.5 100.394V11.606C80.5006 10.8965 80.2906 10.2028 79.8966 9.61281C79.5026 9.02277 78.9424 8.56294 78.2868 8.29158C77.6313 8.02022 76.91 7.94953 76.2142 8.08846C75.5184 8.2274 74.8796 8.56971 74.3785 9.07204C75.2729 8.17723 76.4232 7.58242 77.6703 7.36986C78.9174 7.1573 80.1998 7.3375 81.34 7.88554L101.518 17.5875C102.559 18.0845 103.438 18.8658 104.054 19.8412C104.671 20.8166 104.998 21.9463 105 23.1V88.9C105 90.0528 104.675 91.1823 104.061 92.1582C103.448 93.1341 102.571 93.9168 101.532 94.416L81.354 104.115Z" fill="#1F9CF0" />
    </g>

    <path id="btn-goTop" d="M12.7635 8.5612V30H17.2365V8.5612L26.8376 18.1624L30 15L15 0L0 15L3.16237 18.1624L12.7635 8.5612Z" fill="white" />
</svg>